<?xml version="1.0" encoding="UTF-8" standalone="no"?>
<!-- Created with Inkscape (http://www.inkscape.org/) -->

<svg
   xmlns:dc="http://purl.org/dc/elements/1.1/"
   xmlns:cc="http://creativecommons.org/ns#"
   xmlns:rdf="http://www.w3.org/1999/02/22-rdf-syntax-ns#"
   xmlns:svg="http://www.w3.org/2000/svg"
   xmlns="http://www.w3.org/2000/svg"
   xmlns:sodipodi="http://sodipodi.sourceforge.net/DTD/sodipodi-0.dtd"
   xmlns:inkscape="http://www.inkscape.org/namespaces/inkscape"
   version="1.1"
   width="960"
   height="639"
   id="svg3873"
   inkscape:version="0.48.4 r9939"
   sodipodi:docname="Flag_of_Twente.svg">
  <metadata
     id="metadata4840">
    <rdf:RDF>
      <cc:Work
         rdf:about="">
        <dc:format>image/svg+xml</dc:format>
        <dc:type
           rdf:resource="http://purl.org/dc/dcmitype/StillImage" />
      </cc:Work>
    </rdf:RDF>
  </metadata>
  <sodipodi:namedview
     pagecolor="#ffffff"
     bordercolor="#666666"
     borderopacity="1"
     objecttolerance="10"
     gridtolerance="10"
     guidetolerance="10"
     inkscape:pageopacity="0"
     inkscape:pageshadow="2"
     inkscape:window-width="1600"
     inkscape:window-height="837"
     id="namedview4838"
     showgrid="false"
     inkscape:zoom="0.73865415"
     inkscape:cx="600.75931"
     inkscape:cy="319.76109"
     inkscape:window-x="-8"
     inkscape:window-y="-8"
     inkscape:window-maximized="1"
     inkscape:current-layer="svg3873" />
  <defs
     id="defs3875" />
  <rect
     width="960"
     height="639"
     x="-8.2519534e-007"
     y="-7.7099612e-005"
     id="rect3881"
     style="fill:#d40000;fill-opacity:1;stroke:none" />
  <path
     style="fill:#ffffff;fill-opacity:1;stroke:#070707;stroke-width:1.49185407;stroke-linecap:butt;stroke-linejoin:miter;stroke-miterlimit:4;stroke-opacity:1;stroke-dasharray:none"
     d="m 397.19509,256.37228 c -4.2697,-9.87057 -10.8634,-17.7777 -22.7976,-21.17273 -5.60841,-3.10242 -9.76701,-7.13448 -11.75871,-12.55594 -10.9073,-29.16723 -22.2432,-16.77957 -33.5964,-2.70812 -8.4738,7.00546 -17.0326,13.53126 -26.3972,15.51025 -7.5937,0.92234 -16.1153,-0.23208 -18.9579,11.32496 -0.4987,5.18234 -2.7925,7.60217 -5.9994,8.61681 -7.7319,2.25892 -3.8527,7.92128 -2.6397,12.80212 3.852,8.23929 3.7204,13.13476 2.6397,17.23363 -5.3546,9.55188 0.8125,12.90696 11.2788,4.67769 l 10.7988,-6.89344 c 4.6982,-3.23763 5.5273,-8.23939 6.2394,-13.29452 0.098,-7.54166 4.9029,-12.93733 8.879,-18.71079 -0.3294,3.24321 1.1592,6.7734 2.8797,10.34019 2.9308,6.44187 4.5595,12.75852 2.3998,18.71078 7.4281,-6.12005 7.7693,-16.8507 8.879,-27.08142 l 3.3596,10.34019 c 4.6823,-5.88748 4.816,-15.19696 4.7995,-24.61947 1.6941,20.22237 5.1787,10.44096 8.8791,-2.95434 1.6228,-0.059 2.6141,1.50162 2.8796,4.9239 -6.3651,12.14985 -5.3087,20.89645 5.5195,13.7869 -2.4008,9.6429 0.3007,17.97715 10.5589,24.37327 l 17.99801,17.47982 z"
     id="path3007-8"
     inkscape:connector-curvature="0"
     sodipodi:nodetypes="cccccccccccccccccccccccc" />
  <path
     style="fill:#ffffff;fill-opacity:1;stroke:#0b0b0b;stroke-width:1.49185407;stroke-linecap:butt;stroke-linejoin:miter;stroke-miterlimit:4;stroke-opacity:1;stroke-dasharray:none"
     d="m 483.51849,382.98247 c -4.9505,10.73126 -8.1043,22.54198 -3.1138,39.24613 2.1388,9.61498 4.3573,19.27131 -15.7911,17.34131 -18.1955,-1.36561 -40.2709,-11.52117 -49.1526,8.21431 -2.6247,4.41139 -2.6884,8.82278 -11.3429,13.23417 -6.052,3.48789 -5.454,7.40633 -3.5586,11.40875 3.758,8.01528 0.2402,11.88366 -0.8896,17.11313 l 24.2427,-0.68452 c 1.3023,-4.63655 -1.6642,-7.00227 -4.2258,-9.58335 2.2946,2.23197 4.8988,5.50679 5.7826,9.81153 8.0922,-1.81684 8.7883,-10.20006 9.3413,-18.71036 -4.6066,-8.69973 -1.4896,-15.28532 8.4515,-7.52979 -1.0796,-3.51239 -3.6653,-7.16523 -6.3456,-10.82691 3.0279,3.21584 6.0401,6.528 8.9219,10.64305 8.2501,1.39724 15.9369,0.91604 23.0009,-1.64153 l 32.9167,-0.68454 c 18.1744,-0.97245 11.9366,-14.75858 13.567,-24.41474 2.97,-8.3673 7.6683,-7.27799 11.7878,-9.35518 l 4.6705,-30.80365 -18.9048,-19.85124 z"
     id="path3777-6"
     inkscape:connector-curvature="0"
     sodipodi:nodetypes="ccccccccccccccccccccc" />
  <path
     style="fill:#ffffff;fill-opacity:1;stroke:#000000;stroke-width:1.49185407;stroke-linecap:butt;stroke-linejoin:miter;stroke-miterlimit:4;stroke-opacity:1;stroke-dasharray:none"
     d="m 503.53539,262.04961 19.7945,-47.23226 -84.9606,17.56949 c -29.3351,6.61436 -54.0113,21.11499 -59.8284,67.53986 -2.4992,44.642 25.6141,61.07188 57.6043,73.92876 l 39.1441,-0.45635 c 7.2477,14.93726 14.9527,25.18209 25.1323,10.03971 4.2295,-4.56807 8.7445,-3.56983 13.567,3.42263 3.5114,4.96723 4.6137,12.02565 15.3463,10.72423 -14.8911,12.50141 -9.3454,43.04571 14.9015,55.67475 19.3545,8.97326 34.1767,15.84559 16.6808,35.59532 -3.6555,3.07093 -6.5141,3.12532 -11.7878,12.32147 -1.7254,2.39844 -3.2296,4.76851 -9.5636,7.75796 -6.6262,4.16573 -12.4746,8.46448 -15.5687,13.23416 -1.0613,4.62125 -4.5763,9.60212 -9.7861,14.83138 -7.5296,3.98149 -5.2245,7.33237 -3.5585,10.72424 -13.3489,26.54582 -0.8798,25.14838 10.0085,21.22029 l 18.2376,-7.30162 c 8.4454,-2.84358 6.9444,-9.88898 5.5602,-16.88495 4.544,0.0982 3.7342,-5.296 2.4465,-11.18058 l 2.669,0 c -0.5928,4.95854 2.2966,9.06031 4.893,13.23415 l 5.1154,-5.01985 c -2.1887,-5.09592 -1.748,-10.19182 -1.3344,-15.28774 1.1213,4.70353 1.7545,9.316 6.005,14.60322 4.2804,6.74569 1.2264,14.86994 -1.7793,15.97224 6.9474,-4.14151 17.8607,-10.55579 8.0068,-29.43458 -2.461,-6.73266 -3.0078,-13.26894 0.4448,-19.3949 -3.1762,11.04557 2.4213,33.6656 12.6774,-1.36905 l 4.0034,-11.86511 c 0.2266,9.15803 7.9015,3.91605 10.8981,-3.87898 3.6627,-3.82323 5.4453,-7.43217 6.4499,-10.9524 8.0694,-7.40237 10.7943,-14.50012 2.8913,-20.99212 l -3.781,-4.56351 c 0.6399,-6.82987 -4.0159,-12.23002 -8.8964,-17.56948 -3.1659,-5.08592 0.1465,-9.26555 3.3362,-13.46233 16.1975,-19.1842 37.3202,-37.4744 30.0253,-60.92278 3.0778,4.249 4.4893,8.81853 13.9148,11.8465 3.8799,2.17678 14.0502,3.80648 9.2788,11.13275 -2.1268,1.80124 -7.3662,12.03501 15.255,12.90754 -4.0333,-1.83005 -7.916,-6.94895 -2.359,-12.74619 7.3359,-8.57499 4.529,-14.05634 -3.6172,-17.90921 12.2351,-2.45177 20.3447,-7.87773 17.1422,-21.45878 -0.3985,-7.36806 -0.2314,-14.73611 10.0651,-22.10416 -8.0834,0.23703 -15.1339,2.13896 -20.2876,7.09915 5.1983,-6.17909 10.119,-12.54804 10.3797,-22.10416 -0.1705,-7.15293 -2.0863,-14.30586 -6.4479,-21.45879 4.0366,5.76991 6.2873,13.11022 7.3915,21.45879 5.3603,-14.70057 -0.1894,-29.27373 -19.9729,-41.9495 -6.73,-4.94789 -8.8904,-9.89578 -7.2344,-14.84367 0.6558,-7.52668 -1.5443,-14.43654 -16.6704,-18.55459 -6.894,0.29769 -13.2875,-20.18634 1.4154,-25.00835 -20.1205,-6.99702 -25.3333,7.4204 -14.3113,19.19995 -3.6145,2.20299 -5.8611,6.02842 -4.6982,11.65254 1.0683,5.16664 10.7114,13.7399 7.6863,19.97094 -2.9339,-4.82299 -8.0774,-8.89039 -14.7832,-12.42351 -19.1479,-8.02482 -14.5272,-32.57559 -2.0445,-45.98308 17.0605,-18.31782 37.7242,-34.68265 33.498,-64.53771 -2.7371,-18.64509 -29.9145,-30.73201 -45.293,-16.61845 -7.1739,7.93329 -7.254,23.8623 7.3915,21.29744 -8.528,-9.40059 -0.6381,-27.1928 19.1789,-15.07882 18.0593,17.34863 3.8173,39.46957 -5.0248,45.25016 8.0238,-10.60425 16.4567,-21.12069 6.9198,-35.4957 0.1711,8.95043 -4.1044,23.137 -17.7712,36.14112 -30.8847,27.40108 -66.3508,53.95718 -24.8483,94.70903 -7.0115,-5.3405 -10.8078,-12.00043 -21.5457,-15.81173 -6.1005,-2.31324 -9.3091,-5.86264 -10.3796,-10.32603 0.3849,12.61449 3.2115,24.16631 17.2994,30.81675 5.1999,2.57375 10.1876,5.31077 13.0532,9.68065 1.2467,7.51356 7.7181,11.04524 19.3439,10.64873 11.9705,0.13389 22.467,3.96392 30.6672,13.55291 6.6224,9.81286 12.6284,12.99406 18.8721,17.26384 -5.2009,-2.34399 -10.3304,-3.44301 -15.7267,-9.19664 -6.811,-6.61697 -15.6889,-14.55951 -24.8484,-2.74284 7.2117,-0.70646 12.5462,2.43864 14.9405,11.61678 1.7673,11.11777 8.3027,15.4221 15.884,18.2319 17.8155,6.06555 -8.7815,21.77555 -16.6703,7.58318 -18.6002,-39.9598 -49.4545,-50.25006 -82.7228,-54.69569 -9.7786,-12.81888 -22.0417,-23.51455 -37.3143,-31.63832 z"
     id="path3779-5"
     inkscape:connector-curvature="0"
     sodipodi:nodetypes="cccccccccccccccccccccccccccccccccccccccccccccccccccccsccccccccccccccccccccccccc" />
  <path
     style="fill:#ffffff;fill-opacity:1;stroke:#0b0b0b;stroke-width:1.39560544;stroke-linecap:butt;stroke-linejoin:miter;stroke-miterlimit:4;stroke-opacity:1;stroke-dasharray:none"
     d="m 423.02289,291.94056 c -15.1346,-1.19489 -33.1537,3.52859 -51.59911,9.12701 -1.5309,0.74236 -12.0635,2.75565 -26.2444,-2.50992 -15.5889,-6.2874 -22.9677,1.01046 -25.5771,16.20044 -9.1465,6.35772 -9.3538,13.57521 -5.1155,21.22029 7.3679,15.95089 6.358,31.47205 5.5603,47.00409 -3.2475,15.8864 4.3806,24.41896 19.5721,27.83737 l -7.1171,-0.9127 c -1.5364,6.43815 -1.5527,12.6051 6.4498,17.34132 11.2761,19.94454 30.6424,21.74807 33.80641,-3.6508 l 0,-22.81753 c -10.67851,0.79412 -18.67971,-6.24437 -20.90661,-13.23416 7.039,-6.06223 10.992,-15.0014 9.7861,-28.75007 -1.5154,4.91873 -5.6039,13.13571 -16.4584,12.54963 4.4353,-11.14626 2.5097,-20.42612 -7.3395,-27.38102 l -2.2241,40.61519 c 0.4726,-12.12858 -0.6512,-22.85336 -3.1137,-32.40088 4.8794,13.14406 2.2966,-2.42107 2.6689,-6.61708 8.7144,-6.31702 11.6734,-15.6097 16.4583,-23.9584 l -3.1137,11.18059 c 6.1835,0.94974 11.9724,0.25773 19.1273,5.24803 5.87931,4.37701 21.31341,9.15621 31.58221,4.33532 6.6196,-1.28468 12.9771,-0.19324 18.9048,4.79168 0.3389,-5.47039 5.1646,-8.46215 10.8981,-10.95241 6.6571,-3.31861 7.9921,-5.72723 9.7861,-8.2143"
     id="path3781-0"
     inkscape:connector-curvature="0"
     sodipodi:nodetypes="ccccccccccccccccccccccccc" />
  <path
     style="fill:#ffffff;fill-opacity:1;stroke:#000000;stroke-width:1.49185407;stroke-linecap:butt;stroke-linejoin:miter;stroke-miterlimit:4;stroke-opacity:1;stroke-dasharray:none"
     d="m 448.37769,241.9702 c -4.9208,4.61897 -12.4539,2.8131 -6.2275,-3.42263 -5.2556,1.09263 -10.7126,1.49621 -15.1239,5.4762 0.6104,-2.83335 2.6591,-5.45592 5.3379,-7.98613 -5.1227,0.40712 -9.403,2.11063 -13.3446,4.33533 0.4213,-18.07506 19.7199,-26.94267 34.9184,-37.87708 -7.6891,5.15029 -18.5845,12.28423 -22.6859,15.05957 -4.0544,-1.4557 -8.4534,-2.46948 -10.2308,-6.84527 1.4532,-6.79946 4.5977,-11.86382 13.1222,-11.40875 3.4012,-0.89489 3.9166,-5.13996 0.4448,-6.84527 -11.0213,-0.19288 -18.8536,4.60782 -24.2428,13.23415 -3.2761,3.08248 -5.5413,2.22332 -7.3394,-0.45634 -3.1137,-3.49865 -4.8539,-6.99735 -10.6758,-10.49606 -9.4421,-5.83938 -1.0972,-10.12579 2.4465,-14.83135 8.7544,-10.26281 10.1161,-26.59294 12.8998,-41.75609 1.4914,-8.89263 3.6101,-17.33476 13.3447,-20.30756 -9.5549,-0.316 -18.8308,0.60818 -29.5806,-5.01985 8.5258,2.1846 17.0514,3.66886 25.5772,1.59719 -13.0481,3.69153 -25.4671,-2.76125 -38.5151,-4.02884 -8.21881,-1.11395 -13.35291,3.58727 -14.86331,10.64595 -2.4388,16.63448 14.02391,10.31141 14.45661,1.36902 17.2853,15.48867 -15.60801,42.98031 -21.35141,0.45639 -4.8062,2.45246 -1.8373,12.79731 3.781,20.07938 -18.1102,-9.89792 -16.088,-35.57662 8.2292,-39.4743 15.82101,-19.319656 36.16881,-10.417188 57.38181,3.87901 l -14.9015,-9.355208 c -4.1404,-7.518917 7.8937,0.550222 16.9032,5.704368 0.238,-3.40652 1.1725,-6.098708 5.5602,-5.248027 -0.5635,-7.772483 2.7192,-8.835006 5.6763,-4.621326 2.1402,3.049624 4.3446,5.880776 6.1114,6.674913 -12.4379,-8.942291 -7.8044,-20.251351 -5.3378,-31.26 11.6187,5.228579 28.8156,6.080821 20.2393,27.152827 4.364,-1.75971 4.1123,-8.254709 4.4482,-14.146841 3.0469,-3.418177 5.748,-7.04917 4.6707,-13.005986 4.4893,5.62833 4.6739,11.25666 5.5602,16.88494 0.3729,3.556415 2.4434,4.674507 4.893,5.248029 14.4374,-7.671388 13.9732,-2.296673 14.6791,2.053587 3.5603,-2.973777 9.0147,-1.463443 18.0152,8.442524 l 16.9031,9.35515 c 10.193,4.54938 9.6948,13.37956 -1.7792,14.37506 1.2766,-0.54901 5.767,0.79497 9.6521,4.71209 4.4054,4.44175 8.4635,7.01051 11.9216,8.06573 -2.8347,1.09088 -5.6538,2.2937 -8.8963,0.45634 3.6284,4.15333 5.9212,9.52453 5.7826,17.11311 0.061,9.78268 3.8137,16.91472 8.0068,23.7302 -2.1335,0.38036 -4.3781,0.24796 -7.3396,-3.19443 2.0216,4.83911 4.5139,9.00229 0.4448,22.58935 -4.2765,11.58856 -0.7352,19.02071 3.1138,26.01198 -5.4031,-0.91377 -9.8157,-3.65679 -13.1222,-8.44248 0.657,6.3746 -0.084,11.65771 -4.4482,21.67663 -2.5315,7.28356 -2.8859,16.00298 0.4448,27.15285 -6.3746,-6.69315 -6.9092,-13.38629 -6.2274,-20.07942 -4.7139,9.63766 -8.6196,20.57061 -19.7945,19.85124 -15.1042,1.81293 -15.9054,10.9277 -6.4499,21.67664 -13.7469,-10.80544 -15.9226,-22.35902 -1.5569,-34.45446 8.0933,-8.92025 12.7817,-17.73432 14.9014,-26.46832 -5.357,6.07783 -8.4633,13.9516 -20.9065,14.37504 -8.091,0.56237 -12.201,3.30297 -14.0118,7.3016 -1.3066,3.05522 -2.3774,6.25233 -9.0481,6.15168 -6.3545,-0.0959 -8.5944,8.78766 -7.4103,16.2095 -4.6211,-5.67914 -5.4963,-20.75835 6.4499,-25.7838 -1.3756,-6.65071 -1.6974,-14.16134 10.0085,-17.5695"
     id="path3783-9"
     inkscape:connector-curvature="0"
     sodipodi:nodetypes="ccccccccccccccccccccccccccccscccccccccccscccccccccccccccccsccc" />
  <path
     style="fill:#000000;fill-opacity:0.21698112"
     d="m 521.93279,430.05229 c -0.1248,-0.20701 -0.5574,-2.12631 -0.9615,-4.2651 -2.2001,-11.64418 -6.2092,-20.82302 -11.3107,-25.89542 -4.8589,-4.83117 -8.9318,-5.99986 -20.9547,-6.01259 l -8.7647,-0.2503 1.9151,-5.70357 c 1.1902,-3.54473 1.8883,0.41279 4.121,1.60679 2.2353,1.1953 5.4166,1.37882 7.2119,0.41603 0.6157,-0.3302 2.0954,-1.5276 3.2882,-2.66084 3.1349,-2.97817 7.1989,-5.6202 9.4398,-6.13674 3.5628,-0.82124 6.8164,1.18115 9.8241,8.88255 0.987,2.52724 5.0066,4.46687 7.5394,7.06227 l 4.965,1.45821 -3.2057,3.91044 c -2.3695,2.89044 -2.9096,7.12137 -3.6628,10.76782 -0.8964,4.33969 -0.8535,7.2187 0.1888,12.68828 0.819,4.29771 0.8799,4.98418 0.3668,4.13237 z m 7.4856,-32.59623 c -1.8354,-3.46014 -2.0266,-9.75182 -0.4576,-17.19182 l 0.6594,-3.12654 -1.8115,-2.51568 c -1.6567,-2.30067 -4.749,-5.25325 -7.5107,-7.17122 l -1.0928,-0.75895 1.5177,-0.22856 c 4.176,-0.6288 8.8593,2.35088 11.4906,7.31063 l 1.2845,2.42131 -0.8864,2.6433 c -1.2223,3.64464 -1.8796,8.8105 -2.372,15.47735 -0.2403,3.25327 -0.4125,3.91063 -0.8212,3.14018 z m -39.2137,-12.72486 c -1.6971,-1.93714 -6.3331,-9.31807 -6.041,-9.61774 0.095,-0.0974 1.6418,-0.23173 3.4374,-0.29851 l 3.2648,-0.12147 2.0954,2.8736 c 2.3366,3.20448 2.7909,4.46843 2.3109,6.43022 -0.7703,3.14862 -2.7064,3.42906 -5.0675,0.7339 z m -8.4869,-134.49655 c -0.3919,-0.16436 -1.2023,-0.48467 -1.8008,-0.71171 -0.9137,-0.34667 -1.0065,-0.56933 -0.5789,-1.38901 1.0462,-2.00557 4.5058,-4.88128 6.8602,-5.70242 2.5789,-0.89943 9.5353,-1.04981 13.5443,-0.29271 l 2.1079,0.39809 -3.2958,2.49331 c -5.6178,4.24999 -7.9546,5.27328 -12.3232,5.39625 -2.0905,0.0589 -4.1217,-0.0273 -4.5137,-0.1918 z m 49.6498,-38.05742 c -0.1547,-1.00534 -0.3809,-2.50266 -0.5027,-3.32742 -0.3935,-2.666 -1.2665,-3.38731 -3.9609,-3.27261 l -2.4023,0.10223 3.3573,-3.27064 c 3.9962,-3.89298 6.0965,-5.2783 7.2902,-4.80835 0.7365,0.28997 0.8188,0.71083 0.5676,2.90344 -0.2795,2.43978 -3.449,13.50123 -3.8686,13.50123 -0.1096,0 -0.3258,-0.82257 -0.4806,-1.82791 z m -88.9097,-4.50883 c 0.1585,-2.81496 0.4288,-9.11449 0.6005,-13.99895 0.3148,-8.95632 0.7619,-10.8047 1.3518,-5.58967 0.3519,3.11016 1.1782,5.17111 1.1909,2.97013 0.011,-1.97775 1.6724,-6.44875 3.4549,-9.29954 2.9036,-4.64385 7.367,-7.931 12.5296,-9.22755 1.2733,-0.31976 2.3502,-0.60389 2.3932,-0.63133 0.043,-0.0273 1.1935,-6.41105 2.5568,-14.18573 1.3634,-7.77468 2.6225,-14.30101 2.7981,-14.50296 0.2816,-0.32405 3.8656,21.16847 3.8409,23.03317 0,0.40214 -1.9655,2.70529 -4.3559,5.11811 -6.5217,6.58284 -11.0337,12.04823 -15.1081,18.30063 -3.827,5.87278 -8.3455,14.88428 -9.7656,19.47602 -1.4021,4.53373 -1.8026,4.13993 -1.4871,-1.46233 z m 90.2025,-37.8985 c 2.6284,-5.23836 2.6695,-8.84543 0.1603,-14.05402 -1.9876,-4.12599 -2.0218,-5.2531 -0.1661,-5.47357 1.0595,-0.12581 1.5,0.20781 2.5749,1.94977 1.6622,2.69393 3.4804,7.95712 3.4933,10.11234 0.016,2.58699 -1.618,5.54464 -3.7369,6.76645 -1.9198,1.10693 -2.6385,1.32296 -2.3255,0.69903 z m -76.8614,-17.91342 c 1.7849,-4.76517 1.526,-7.50216 -1.4319,-15.13474 -4.3827,-11.3092 -3.2509,-17.81103 4.0135,-23.05569 4.1373,-2.98694 4.9879,-4.10567 4.6664,-6.13751 l -0.2713,-1.71541 1.162,0.78108 c 1.2963,0.87145 1.8698,2.51714 1.403,4.02611 -0.1698,0.54881 -1.8427,2.2742 -3.7176,3.83421 -4.4616,3.71211 -6.1747,6.53857 -6.427,10.60378 -0.1726,2.78158 -0.01,3.48866 1.7419,7.3819 3.8671,8.6142 4.2572,11.36555 2.2091,15.58201 -1.2378,2.54834 -4.0899,5.81453 -3.3481,3.83426 z"
     id="path3821-0"
     inkscape:connector-curvature="0"
     sodipodi:nodetypes="cssccsccsssscssscccscscccscsscssccscscsccscsccssscsccsscscssccsccssscsscccsssssccscsccss" />
  <path
     style="fill:#000000;fill-opacity:0.18867924"
     d="m 574.37429,490.97337 c -0.6749,0.19247 -1.311,0.13038 -1.7528,-0.17114 -0.1424,-0.0972 -0.3785,-0.38251 -0.4476,-0.54084 -0.3004,-0.6892 0.092,-1.50046 0.896,-1.85373 l 0.088,-0.0389 0.1423,0.19716 c 0.1104,0.15284 0.1362,0.19971 0.1151,0.20823 -0.2901,0.11818 -0.3111,0.12973 -0.4604,0.25345 -0.1323,0.10966 -0.1571,0.13713 -0.2067,0.229 -0.091,0.16946 -0.1119,0.37087 -0.057,0.5615 0.038,0.12973 0.2072,0.36321 0.3299,0.44957 0.3428,0.24881 0.9047,0.30659 1.3768,0.14159 0.079,-0.0275 0.145,-0.047 0.1477,-0.0434 0.01,0.009 0.029,0.5437 0.023,0.54857 -0.01,0.003 -0.09,0.0281 -0.1926,0.0575 z m -5.054,4.18365 c -0.155,0.0761 -0.2835,0.13872 -0.2856,0.13915 0,0.002 -0.018,-0.0694 -0.035,-0.15522 -0.035,-0.17555 -0.1636,-0.654 -0.1839,-0.68217 -0.01,-0.0129 -0.028,-0.003 -0.062,0.0315 l -0.049,0.0498 -0.1407,-0.195 -0.1407,-0.19501 0.1261,-0.0917 0.1262,-0.0916 -0.2281,-0.78577 -0.2282,-0.78576 0.317,-0.26349 0.317,-0.26349 0.068,0.0491 c 1.3362,0.97314 1.8208,1.29658 2.1964,1.46602 0.086,0.0386 0.1188,0.0631 0.1089,0.0806 -0.022,0.0395 -0.3987,0.54051 -0.406,0.54014 -0.01,4.5e-4 -0.08,-0.0644 -0.1705,-0.14228 -0.09,-0.0782 -0.2525,-0.20347 -0.3606,-0.2787 -0.108,-0.0752 -0.2103,-0.14676 -0.2273,-0.15895 l -0.031,-0.0221 -0.372,0.31497 -0.3721,0.315 0.1,0.32281 c 0.055,0.17759 0.1309,0.39603 0.1687,0.48549 0.038,0.0894 0.064,0.16613 0.058,0.17045 -0.01,0.004 -0.1382,0.0701 -0.2932,0.14622 z m 0.3341,-2.03468 c -0.011,-0.005 -0.1993,-0.13753 -0.4183,-0.29381 -0.2191,-0.15624 -0.4028,-0.28038 -0.4082,-0.27578 -0.01,0.004 0.06,0.22689 0.1458,0.49398 0.086,0.26712 0.1574,0.49614 0.1593,0.50898 0,0.0179 0.065,-0.0275 0.2726,-0.2002 0.2077,-0.17266 0.2643,-0.22572 0.2488,-0.23317 z m 3.0406,-0.83414 c -0.3528,-0.16893 -0.9413,-0.36191 -1.2869,-0.42201 -0.3167,-0.055 -0.3288,-0.10086 0.1407,0.53458 l 0.4111,0.55627 -0.2562,0.21299 -0.2563,0.21301 -0.8315,-1.15194 -0.8315,-1.15194 0.491,-0.3971 c 0.5306,-0.42911 0.627,-0.49372 0.8433,-0.56509 0.1885,-0.0622 0.3688,-0.0377 0.528,0.0717 0.1069,0.0736 0.275,0.3169 0.3139,0.45417 0.046,0.16104 0.05,0.41458 0.01,0.61224 l -0.035,0.1726 0.3764,0.12008 c 0.2071,0.0661 0.4745,0.14113 0.5941,0.16682 0.1198,0.0257 0.216,0.0505 0.214,0.055 -0.042,0.0936 -0.2781,0.55946 -0.2876,0.5673 -0.01,0.006 -0.069,-0.0159 -0.1375,-0.0487 z m -1.522,-0.81829 c 0.037,-0.10244 0.075,-0.19263 0.084,-0.20044 0.01,-0.007 0.048,-0.002 0.087,0.0119 0.038,0.0145 0.075,0.0219 0.081,0.0168 0.015,-0.0124 0.026,-0.21999 0.017,-0.31857 -0.01,-0.0953 -0.1361,-0.28131 -0.2065,-0.3016 -0.1373,-0.0401 -0.277,0.0198 -0.5233,0.22463 l -0.1559,0.12952 0.2577,0.35699 c 0.2443,0.3385 0.2603,0.35323 0.2748,0.31209 0.01,-0.0247 0.047,-0.12869 0.084,-0.23116 z m 3.9642,-1.20105 c 0,-0.0221 -0.1623,-0.2617 -0.3495,-0.53292 l -0.3408,-0.49281 -0.067,0.0692 -0.067,0.0693 -0.1473,-0.20409 -0.1473,-0.20407 0.079,-0.0521 0.08,-0.0522 -0.3093,-0.40338 c -0.1698,-0.22205 -0.3219,-0.4165 -0.3373,-0.43264 l -0.028,-0.0292 0.2668,-0.22755 0.2667,-0.22747 0.075,0.13274 c 0.041,0.0728 0.1818,0.28063 0.3123,0.46139 l 0.237,0.3288 0.3712,-0.3085 0.3712,-0.30848 -0.2325,-0.32209 c -0.1279,-0.17714 -0.2801,-0.37478 -0.3387,-0.4389 l -0.1062,-0.11682 0.2764,-0.22968 0.2763,-0.22966 0.02,0.0519 c 0.011,0.0285 0.2756,0.42612 0.5882,0.88354 0.4357,0.63756 0.6158,0.88712 0.7718,1.06925 0.1125,0.13011 0.2215,0.25011 0.2424,0.26647 l 0.038,0.0297 -0.278,0.23116 -0.2781,0.23115 -0.024,-0.0584 c -0.013,-0.0321 -0.1723,-0.27408 -0.3529,-0.53756 l -0.3282,-0.47909 -0.3846,0.31967 -0.3846,0.31968 0.3502,0.46083 c 0.1926,0.2535 0.3712,0.47887 0.3968,0.501 l 0.046,0.0404 -0.2779,0.23103 -0.278,0.23101 -0.01,-0.0401 z"
     id="path4299-4-0"
     inkscape:connector-curvature="0" />
  <path
     style="fill:#000000"
     d="m 532.33689,551.75629 c -0.784,-0.355 -1.8327,-1.11414 -2.3305,-1.68698 -1.1503,-1.32355 -1.1617,-1.32252 -4.7964,0.42086 -3.8464,1.84496 -5.8654,1.89243 -7.5372,0.17723 -1.2287,-1.26052 -1.4997,-2.37125 -1.292,-5.29536 0.1422,-2.00211 1.8746,-5.60557 2.695,-5.60557 0.8713,0 0.8519,0.16101 -0.2977,2.47269 -1.2463,2.50637 -1.3454,6.0002 -0.2068,7.29099 1.1833,1.34134 2.8469,1.20027 6.3147,-0.53536 3.2491,-1.62624 5.3985,-1.62424 6.2488,0.006 0.2492,0.47764 1.1029,1.14451 1.897,1.48201 1.7384,0.73872 2.8685,0.0551 2.8685,-1.73523 0,-3.26089 2.4656,-5.08137 6.8819,-5.08137 3.8059,0 3.2873,1.13773 -0.6675,1.4645 -3.3681,0.27828 -4.789,1.45072 -4.789,3.95134 0,1.57726 -1.4653,3.36808 -2.732,3.33902 -0.4573,-0.0108 -1.4729,-0.30957 -2.2568,-0.66457 z m 26.9592,-46.21998 c 0.1067,-0.32825 0.8868,-0.74213 1.7336,-0.91986 2.4734,-0.51892 3.7653,-2.19474 5.1144,-6.63372 0.6773,-2.22882 1.4042,-4.16186 1.6153,-4.29567 0.7194,-0.45615 0.8897,0.5919 0.4063,2.49921 -1.6368,6.45722 -4.225,9.94681 -7.3775,9.94681 -1.1187,0 -1.6208,-0.20078 -1.4921,-0.59677 z m 16.3692,-18.72513 c -0.6313,-0.64762 0.267,-1.15061 2.0548,-1.15061 2.301,0 3.9284,-1.6261 5.0287,-5.02502 0.9863,-3.04606 3.303,-5.38626 6.3655,-6.42983 1.3476,-0.45922 3.1627,-1.57116 4.0492,-2.48058 3.0185,-3.09681 2.7206,-7.07003 -0.9887,-13.18381 -2.3238,-3.83031 -2.4113,-4.07695 -1.4471,-4.07695 0.8635,0 3.4279,4.12395 4.9181,7.90891 2.4732,6.2817 0.053,11.24424 -6.572,13.47491 -2.2948,0.77269 -3.8673,2.59894 -5.5539,6.45025 -0.7751,1.7701 -1.9123,3.57971 -2.5269,4.02139 -1.0878,0.78166 -4.7183,1.11648 -5.3277,0.49134 z m -15.1773,-33.0531 c -2.3792,-2.68916 -2.6388,-3.19323 -1.6451,-3.19323 0.7717,0 5.0898,4.45974 5.0898,5.25676 0,1.17619 -1.2306,0.43904 -3.4447,-2.06353 z m -110.5853,-0.14745 c -0.9146,-0.46878 -1.597,-1.07164 -1.5163,-1.33973 0.1782,-0.59239 0.7976,-0.52342 2.84,0.31624 1.4344,0.58977 1.7487,0.53371 3.871,-0.69021 2.5654,-1.47948 3.3992,-1.58082 6.4731,-0.78677 1.3216,0.34144 2.1108,0.81826 2.1108,1.27543 0,0.54676 -0.3281,0.6522 -1.3065,0.41989 -4.0211,-0.95481 -4.7263,-0.91371 -6.5875,0.38381 -2.14,1.49186 -3.5928,1.59588 -5.8846,0.42134 z m 42.6425,0.0273 c -0.7789,-0.12703 -1.3066,-0.5205 -1.3066,-0.97415 0,-0.60784 0.3624,-0.70163 1.7998,-0.46585 2.8007,0.45946 4.8764,-0.39897 7.4525,-3.08213 2.5648,-2.67148 3.733,-3.19299 8.2659,-3.69013 2.4443,-0.26804 2.9859,-0.20413 2.8141,0.33205 -0.1238,0.3862 -1.4894,0.88514 -3.2645,1.19262 -4.4508,0.77098 -4.9971,1.03137 -6.6469,3.16836 -0.8228,1.06583 -2.061,2.23443 -2.7514,2.59679 -1.4858,0.77981 -4.5306,1.22119 -6.3629,0.92244 z M 348.56988,425.82734 c -2.0703,-2.12396 -2.4331,-2.30832 -4.3887,-2.23072 -2.3053,0.0916 -3.0435,-0.93885 -1.0628,-1.48342 1.8081,-0.4971 2.5369,-0.35076 4.2732,0.85804 l 1.6738,1.16532 0.2155,-2.3016 c 0.2424,-2.58796 1.6908,-5.95901 2.6994,-6.28256 0.7261,-0.23295 0.6721,0.0681 -0.6838,3.81636 -0.5811,1.6065 -0.7241,3.07394 -0.5343,5.4837 0.1426,1.80963 0.2155,3.29023 0.1619,3.29023 -0.054,0 -1.113,-1.04191 -2.3542,-2.31535 z m 153.35901,-8.08205 c -0.5227,-0.82582 -1.9124,-2.25495 -3.0883,-3.17587 -1.5917,-1.24653 -1.8346,-1.58438 -0.9503,-1.32203 1.7762,0.52687 3.4577,1.89472 4.436,3.60851 1.1607,2.03321 0.8154,2.80572 -0.3974,0.88939 z m -9.5025,0.16105 c -0.784,-0.53268 -1.7995,-0.9699 -2.2569,-0.97166 -0.4573,0 -0.8314,-0.22258 -0.8314,-0.49066 0,-0.67809 1.9869,-0.58235 2.8507,0.13735 0.8031,0.66917 2.1109,2.30156 1.8399,2.29664 -0.097,0 -0.8184,-0.439 -1.6023,-0.97167 z m 100.964,-1.61689 c 0,-0.63607 1.4936,-3.40331 2.758,-5.1096 2.1106,-2.84836 4.9095,-4.14568 9.3022,-4.3116 3.3183,-0.12532 3.6244,-0.0734 2.1935,0.37275 -6.125,1.90954 -8.5857,3.36128 -12.1312,7.15733 -1.1674,1.2498 -2.1225,2.10082 -2.1225,1.89112 z m -89.5674,-1.98262 c -0.8277,-1.31394 -2.3729,-2.55965 -6.2226,-5.01624 -0.5917,-0.37758 -0.1396,-0.3475 1.3257,0.0883 3.7495,1.11506 6.3455,3.52258 6.0017,5.56607 -0.1197,0.71108 -0.3323,0.58825 -1.1048,-0.6381 z m -12.3469,0.18743 c -0.7839,-0.53268 -1.7995,-0.96991 -2.2568,-0.97167 -0.4573,0 -0.8315,-0.22256 -0.8315,-0.49066 0,-1.03649 2.2634,-0.41729 3.5635,0.97488 1.5956,1.70863 1.4866,1.82035 -0.4752,0.48745 z m -133.19861,-1.23294 c -1.542,-2.01123 -1.697,-4.55688 -0.5383,-8.8428 1.0827,-4.00462 1.515,-4.84263 2.2562,-4.37273 0.264,0.16739 -0.023,1.94844 -0.6961,4.32013 -1.2495,4.40257 -1.1729,6.35179 0.3266,8.30755 0.8527,1.11214 0.8365,1.82079 -0.042,1.82079 -0.1988,0 -0.7868,-0.55481 -1.3068,-1.23294 z m 150.10311,-0.75095 c -0.068,-1.3877 -3.3695,-4.78959 -6.6002,-6.80091 -3.2815,-2.04292 -2.503,-2.2898 1.5739,-0.49909 3.126,1.37312 6.0692,5.49404 5.3102,7.43507 -0.1717,0.43924 -0.2578,0.39834 -0.2839,-0.13507 z m -18.994,-1.74835 c -0.8879,-0.62816 -2.0639,-1.14885 -2.6132,-1.15699 -0.9139,-0.0136 -0.9273,-0.0574 -0.1577,-0.51717 1.0912,-0.65176 2.3017,-0.23397 3.6785,1.26958 1.4839,1.62045 1.071,1.80446 -0.9076,0.40458 z m 22.9752,-2.16599 c -1.1913,-2.71534 -5.2146,-6.84634 -8.5468,-8.77569 -2.901,-1.67967 -3.2229,-2.07523 -1.2922,-1.58778 5.1087,1.28981 9.245,4.79124 10.3763,8.78368 0.962,3.39477 0.655,4.29732 -0.5373,1.57979 z m 5.3017,0.19448 c -0.8892,-3.87114 -5.8165,-9.75363 -10.8105,-12.9061 -2.895,-1.82751 -2.4768,-2.2938 0.8826,-0.9842 3.4853,1.35865 6.694,3.81638 8.2332,6.30636 1.4281,2.31014 2.6014,6.57007 2.2562,8.19096 -0.1552,0.72882 -0.2875,0.58581 -0.5615,-0.60702 z m -29.5132,-2.0953 c -0.784,-0.53267 -1.7996,-0.96991 -2.2569,-0.97167 -0.4573,0 -0.8314,-0.22256 -0.8314,-0.49066 0,-1.03649 2.2633,-0.41729 3.5634,0.97488 1.5956,1.70863 1.4867,1.82035 -0.4751,0.48745 z m 110.7242,-2.87887 c -0.659,-0.26449 -0.086,-0.46371 1.9676,-0.68389 3.8045,-0.40798 7.4637,-1.8509 10.8314,-4.27109 1.5031,-1.08022 2.8208,-1.87383 2.9284,-1.76351 0.4803,0.49274 -4.308,5.19996 -6.2347,6.12908 -2.206,1.06383 -7.4922,1.39208 -9.4927,0.58941 z m 6.9638,-8.81307 c -2.496,-0.60648 -2.2388,-0.81915 1.3659,-1.12921 3.6234,-0.31162 8.0594,-2.11306 11.1405,-4.52408 2.6803,-2.09731 2.4712,-0.97874 -0.36,1.92582 -3.5581,3.6503 -7.4935,4.85798 -12.1464,3.72747 z m 1.0932,-6.85264 c -2.6079,-0.29529 -2.7883,-0.19336 2.6131,-1.47646 2.6039,-0.61856 5.1653,-2.11627 8.7667,-5.12592 2.5721,-2.14967 2.6836,-2.19509 1.9853,-0.8097 -2.7286,5.41338 -7.5251,8.07339 -13.3651,7.41208 z m 1.2388,-6.48754 c 1.4654,-0.61842 3.296,-1.58584 4.0681,-2.14986 1.8326,-1.33875 4.9597,-4.83414 6.1062,-6.82529 1.2463,-2.16433 1.7493,-1.97906 0.9486,0.34935 -0.945,2.7477 -1.5327,3.76368 -3.4105,5.89608 -1.8641,2.11681 -5.8016,3.88413 -8.6127,3.8657 l -1.7639,-0.0117 2.6642,-1.12443 z m -1.0013,-5.36755 c 0,-0.15622 0.6542,-0.63114 1.4537,-1.05531 3.3136,-1.75791 7.2513,-6.51942 8.9654,-10.84096 0.8655,-2.18194 1.5036,-2.45511 1.1708,-0.50119 -0.9275,5.445 -3.3355,9.26615 -6.9587,11.04204 -2.2314,1.09376 -4.6312,1.79606 -4.6312,1.35542 z m -108.0909,-1.58765 c -2.0905,-0.32634 -8.2374,-0.7545 -13.6598,-0.95152 -7.7689,-0.28223 -9.8588,-0.49714 -9.8588,-1.01378 0,-0.50709 1.1035,-0.65396 4.87,-0.64811 9.523,0.0147 22.1118,1.18945 23.0489,2.15079 0.7893,0.80978 -0.9828,0.99608 -4.4003,0.46262 z m 107.3229,-5.70057 c 4.5056,-2.90094 7.3773,-6.27672 9.6258,-11.31529 0.6542,-1.46602 1.2832,-2.66552 1.3978,-2.66552 0.3313,0 -0.3612,3.96557 -1.044,5.97889 -1.3308,3.9242 -4.7087,6.96597 -8.974,8.08123 -1.5058,0.39371 -1.7147,0.37724 -1.0056,-0.0793 z m -93.5528,-2.98917 -1.5461,-1.68182 -1.8358,0.97503 c -2.1432,1.13817 -4.1135,0.93223 -5.6988,-0.59565 -0.989,-0.95319 -1.1287,-0.9686 -2.1478,-0.23622 -1.4746,1.0596 -2.9287,0.98531 -3.9771,-0.20311 -0.6655,-0.75441 -0.7391,-1.12082 -0.313,-1.558 0.4261,-0.43715 0.7058,-0.36305 1.1891,0.31497 1.0062,1.41178 2.4646,0.56529 3.5044,-2.03399 l 0.913,-2.28254 0.6373,2.33519 c 1.1061,4.05292 4.3251,4.83345 6.9144,1.6765 0.6711,-0.81822 1.292,-1.40529 1.3798,-1.30463 0.088,0.10076 0.6162,1.1118 1.1741,2.24691 1.3395,2.72512 2.6646,3.05956 5.5554,1.40201 2.0644,-1.18374 3.0495,-1.28465 3.0495,-0.3123 0,0.633 -4.7826,2.93946 -6.0951,2.93946 -0.7038,0 -1.7628,-0.65887 -2.7033,-1.68181 z m -36.5761,-1.32184 c 0.5227,-0.29524 1.672,-1.2208 2.554,-2.05681 1.4915,-1.41357 1.5621,-1.43468 1.008,-0.30138 -1.0019,2.0493 -1.9891,2.92532 -3.2793,2.90983 -1.1576,-0.0136 -1.1748,-0.0477 -0.2827,-0.55164 z m -28.745,-0.40844 c 0,-0.26808 0.2571,-0.48743 0.5713,-0.48743 0.3142,0 1.3014,-0.71288 2.1937,-1.58418 l 1.6224,-1.58418 -0.7732,1.56975 c -0.9871,2.00377 -3.6142,3.5201 -3.6142,2.08604 z m 20.3313,-0.3255 c 0.8601,-0.4349 1.9826,-1.33686 2.4944,-2.00436 0.5118,-0.66755 0.9305,-0.98161 0.9305,-0.69791 0,1.17721 -2.4847,3.51503 -3.7244,3.50411 -1.2491,-0.0112 -1.2455,-0.0204 0.2995,-0.80184 z m 192.8554,-0.89426 c 1.3724,-0.70435 3.5701,-2.50086 4.9485,-4.04508 2.2335,-2.50218 2.4451,-2.63573 2.132,-1.34533 -0.7961,3.28072 -3.7208,5.70155 -7.671,6.34945 l -1.8784,0.30806 2.4689,-1.2671 z m -218.4131,-0.24255 c 0,-0.26809 0.2571,-0.48744 0.5713,-0.48744 0.3142,0 1.3014,-0.71289 2.1937,-1.58419 l 1.6225,-1.58418 -0.7733,1.56976 c -0.9871,2.00377 -3.6142,3.5201 -3.6142,2.08605 z m 44.4389,-0.46297 c -0.1534,-0.25464 0.1646,-0.7065 0.7066,-1.00408 0.542,-0.29759 1.6353,-1.62464 2.4296,-2.94907 0.7944,-1.32442 1.532,-2.40805 1.6392,-2.40805 0.4079,0 -1.6889,5.02668 -2.4627,5.90398 -0.88,0.99759 -1.8693,1.19316 -2.3127,0.45722 z m 5.6838,-0.0292 c -0.1931,-0.32058 0.083,-0.65901 0.6655,-0.81529 0.5477,-0.14692 1.7677,-1.50307 2.7112,-3.01365 1.3786,-2.20738 1.652,-2.45953 1.3928,-1.28426 -0.8365,3.79263 -3.7095,6.87266 -4.7695,5.1132 z m -56.7744,-0.91726 c 0,-0.23904 0.553,-0.57699 1.2288,-0.751 0.6759,-0.17402 2.3203,-1.34939 3.6542,-2.61191 l 2.4253,-2.2955 -1.1011,1.94976 c -1.5524,2.74917 -3.1704,4.14325 -4.8084,4.14325 -0.7693,0 -1.3988,-0.19557 -1.3988,-0.4346 z m 221.909,-1.91564 c 2.983,-1.94231 6.1457,-5.73104 7.9459,-9.51888 0.8473,-1.78282 1.6134,-3.24154 1.7023,-3.24154 0.089,0 -0.01,1.11619 -0.2204,2.48049 -0.8092,5.25124 -3.9679,9.34633 -8.4058,10.89766 -3.1438,1.09898 -3.4107,0.93765 -1.022,-0.61773 z m -226.6047,0.446 c -0.484,-0.31444 -0.268,-0.51469 0.819,-0.75962 0.8119,-0.18294 2.5802,-1.35099 3.9296,-2.59562 2.2604,-2.08498 2.3946,-2.1464 1.7062,-0.78074 -1.8322,3.63509 -4.5478,5.37511 -6.4548,4.13598 z m -6.628,-1.90608 c -0.4503,-0.31318 -0.011,-0.60131 1.52,-0.99681 1.2263,-0.31674 3.4934,-1.59681 5.2659,-2.97316 1.7118,-1.32929 3.1124,-2.29623 3.1124,-2.14873 0,0.57733 -2.5952,3.89753 -3.9051,4.99621 -1.4706,1.23333 -4.9081,1.87719 -5.9932,1.12249 z m -5.5346,-2.51212 c -0.1568,-0.26025 0.3116,-0.62003 1.041,-0.79956 2.0944,-0.51556 3.9966,-1.60758 6.4612,-3.70927 1.2564,-1.07139 2.3661,-1.86421 2.4659,-1.76185 0.4516,0.46336 -3.6725,5.22394 -5.1477,5.94214 -1.8234,0.88767 -4.3787,1.06184 -4.8204,0.32854 z m 237.9375,-0.8673 c 0.1414,-0.46916 0.854,-2.27879 1.5836,-4.02139 1.837,-4.3877 2.1285,-10.704 0.6773,-14.67455 -1.3094,-3.58268 -3.3962,-6.76274 -7.0396,-10.72769 -1.6332,-1.77735 -2.9695,-3.36943 -2.9695,-3.53788 0,-1.47685 4.1156,2.26186 7.5252,6.83606 5.53,7.4188 6.3064,16.25755 2.165,24.6423 -1.0996,2.22605 -2.4846,3.28389 -1.942,1.48315 z m -122.6682,-3.45246 c 2.8423,-2.66507 5.7852,-7.71788 6.3673,-10.93241 0.1826,-1.00832 0.5556,-1.9751 0.8289,-2.14839 0.7335,-0.46511 0.081,5.6898 -0.8451,7.96668 -1.2345,3.03642 -4.7364,6.27434 -7.8302,7.23995 -0.8817,0.27521 -0.5065,-0.26404 1.4791,-2.12583 z m 7.2676,0.19143 c 1.6649,-2.26724 2.598,-4.77931 2.6362,-7.09709 0.04,-2.45987 0.9476,-0.83913 0.9548,1.70604 0.01,2.33952 -1.226,4.57025 -3.3885,6.13259 l -1.5912,1.14953 1.3887,-1.89107 z m -126.4653,0.84536 c -1.3709,-0.27087 -1.3945,-1.11834 -0.031,-1.11834 1.5765,0 4.8038,-1.76804 7.2352,-3.96377 1.1989,-1.0826 2.1797,-1.76189 2.1797,-1.5096 0,1.15611 -3.6112,5.16575 -5.4052,6.00152 -2.0055,0.93432 -2.1377,0.95392 -3.9785,0.59019 z m 107.8062,-1.87938 c 3.4059,-4.79617 5.1334,-9.93082 5.1477,-15.30013 0.011,-4.2765 1.0914,-2.21979 1.3255,2.52402 0.1609,3.26128 0.01,4.55197 -0.8012,6.75169 -1.1354,3.08759 -3.465,6.09642 -5.7968,7.48675 l -1.5848,0.94495 1.7096,-2.40728 z m 6.0528,0.50378 c 2.7487,-3.21165 4.8034,-8.95965 4.8034,-13.43704 0,-1.66578 0.1211,-1.97452 0.587,-1.49659 0.3702,0.37987 0.5876,2.0806 0.5889,4.60632 0,4.81026 -0.9325,6.98653 -4.3113,10.03777 -2.7252,2.46103 -3.6662,2.62437 -1.668,0.28954 z m -13.7265,-1.42742 c 0,-0.14117 0.7779,-1.30045 1.7287,-2.57618 2.8147,-3.77698 3.9631,-7.29079 4.7406,-14.5056 0.292,-2.70958 0.3473,-2.81711 0.7522,-1.46231 0.2404,0.80428 0.4633,3.1102 0.4953,5.1243 0.069,4.35115 -1.3083,8.01002 -4.0896,10.86335 -1.6586,1.70161 -3.6272,3.08906 -3.6272,2.55644 z m -5.0035,-4.89976 c 2.4743,-3.70781 3.8791,-7.97789 4.3395,-13.19063 0.4554,-5.15581 1.367,-3.49505 1.3563,2.47094 -0.01,3.45215 -0.2278,4.8822 -1.0398,6.71098 -0.9722,2.18963 -5.374,7.18107 -6.3327,7.18107 -0.2422,0 0.5123,-1.42757 1.6767,-3.17236 z m -129.4568,-22.71497 c -3.9747,-0.64864 -4.7512,-0.89192 -4.7512,-1.48865 0,-0.3955 0.9589,-0.42684 3.4446,-0.11255 4.9611,0.62735 13.3628,0.50002 17.2233,-0.26102 5.6923,-1.12219 13.7454,-4.51716 19.397,-8.17735 l 1.8796,-1.21733 3.5579,3.65005 c 2.2562,2.31466 3.4273,3.86676 3.2011,4.24238 -0.2422,0.40205 -1.4039,-0.47374 -3.6166,-2.72635 l -3.2598,-3.31868 -1.7898,1.09118 c -11.762,7.17088 -24.2614,10.11751 -35.2861,8.31832 z m 289.4992,-6.10972 c 1.6944,-3.44022 2.3648,-7.42256 2.0286,-12.0491 l -0.2883,-3.96674 0.9917,2.42872 c 2.0378,4.99056 1.6937,9.01146 -1.131,13.21671 -2.1111,3.14267 -3.0763,3.36602 -1.601,0.37041 z m -332.73551,-0.18967 c 0,-1.65189 1.2811,-4.2578 2.3934,-4.86856 1.2313,-0.67603 3.2867,-0.34637 4.9934,0.80082 1.7478,1.17488 0.745,1.82356 -1.3985,0.90474 -2.7827,-1.19286 -3.4873,-0.70235 -4.7411,3.30051 -0.3674,1.17288 -1.2472,1.07582 -1.2472,-0.13751 z m 326.61641,-1.6904 c 1.8624,-4.73275 2.1585,-9.13156 0.9646,-14.32806 -0.3939,-1.71439 -0.6083,-3.22769 -0.4764,-3.36306 0.1319,-0.13531 0.9074,1.21754 1.7233,3.0063 1.9836,4.34855 2.0628,7.88917 0.2613,11.66684 -1.2703,2.66366 -3.3158,5.1601 -2.4728,3.01798 z m -13.6755,-5.36184 c -0.5027,-3.45864 -2.807,-8.05589 -5.6216,-11.21533 -1.3281,-1.49078 -2.3212,-2.80639 -2.2069,-2.92362 0.4507,-0.46243 5.248,3.32728 6.555,5.17823 1.73,2.45022 2.6537,6.67048 2.0593,9.40921 l -0.4316,1.98871 -0.3542,-2.4372 z m 6.2698,-2.68093 c -0.2382,-4.46056 -1.514,-8.11418 -4.0023,-11.46103 -1.7655,-2.37472 -1.1577,-2.63131 1.1552,-0.48765 2.8731,2.66299 4.3503,6.06986 4.3241,9.97275 -0.012,1.75703 -0.2991,3.85258 -0.6386,4.65686 -0.5826,1.38038 -0.6296,1.2302 -0.8384,-2.68093 z m -31.5227,-21.15433 c -4.0575,-1.31648 -6.4366,-3.26414 -8.0983,-6.62977 -0.7798,-1.57961 -1.7257,-4.87441 -1.3993,-4.87441 0.078,0 0.6917,0.96167 1.3631,2.13703 1.6376,2.86684 5.2101,6.08102 9.1624,8.24351 3.4076,1.86445 2.915,2.40293 -1.0279,1.12364 z m -21.3375,-5.44691 c -2.7876,-1.0478 -4.8863,-2.90679 -6.4603,-5.7223 -0.7774,-1.39067 -1.4155,-2.67016 -1.4179,-2.8433 0,-0.17318 1.2524,0.94682 2.7885,2.48888 2.0583,2.06626 3.7368,3.20682 6.3811,4.33622 1.9735,0.84289 3.9773,1.53588 4.4527,1.53997 0.4755,0.005 1.1852,0.22008 1.5772,0.47998 1.154,0.7651 -5.1863,0.52312 -7.3213,-0.27945 z m 53.1709,-4.37239 c -2.2779,-1.92519 -6.2361,-3.19761 -10.9279,-3.51298 -4.2574,-0.28613 -4.2689,-0.29046 -2.624,-0.98228 1.0903,-0.45859 2.8801,-0.63758 5.2636,-0.52644 3.0208,0.14092 3.9856,0.40769 5.8976,1.63078 2.1426,1.37054 5.1536,4.65184 4.2333,4.61313 -0.2295,-0.009 -1.0587,-0.55963 -1.8426,-1.22221 z m -357.15741,-5.48921 c 0.5977,-0.47189 1.505,-1.50893 2.0162,-2.30448 1.0835,-1.68635 1.2575,-0.81817 0.2405,1.19954 -0.6687,1.32677 -1.6152,1.99672 -2.7884,1.9738 -0.3052,-0.006 -0.066,-0.39697 0.5317,-0.86886 z m -4.6896,-2.41055 c 0.5589,-0.46916 1.5452,-1.51106 2.1918,-2.31534 l 1.1758,-1.46232 -0.5094,1.46145 c -0.6804,1.95243 -1.8111,3.16923 -2.945,3.16923 -0.8892,0 -0.8854,-0.0366 0.087,-0.85302 z m -4.8129,-0.5141 c 0.5977,-0.47189 1.505,-1.50892 2.0162,-2.30447 1.0835,-1.68635 1.2576,-0.81817 0.2405,1.19953 -0.6687,1.32677 -1.6151,1.99671 -2.7884,1.9738 -0.3052,-0.006 -0.066,-0.39697 0.5317,-0.86886 z m -10.8662,-0.46078 c 0.5588,-0.46916 1.5451,-1.51106 2.1918,-2.31534 l 1.1757,-1.46232 -0.5093,1.46145 c -0.6804,1.95243 -1.8111,3.16923 -2.9451,3.16923 -0.8891,0 -0.8853,-0.0366 0.087,-0.85302 z m 4.4063,0.34268 c 0.4418,-0.26439 1.4738,-1.29962 2.2933,-2.30053 l 1.49,-1.81981 -0.7676,1.9327 c -0.8458,2.12943 -1.4434,2.68673 -2.8689,2.6757 -0.8515,-0.006 -0.8667,-0.0573 -0.1468,-0.48806 z m 314.33051,-9.58085 c -3.0571,-1.046 -5.7536,-3.5377 -7.2703,-6.71791 -1.3303,-2.78957 -1.4183,-5.01483 -0.097,-2.4448 1.7071,3.31962 6.2477,6.81369 12.2295,9.41082 1.1057,0.48008 1.0564,0.51595 -0.7127,0.51863 -1.0452,0 -2.9127,-0.34344 -4.1499,-0.76674 z M 304.84118,242.11295 c -0.677,-0.69461 -0.2239,-1.07744 3.5931,-3.03622 4.3339,-2.22396 12.5166,-4.67544 12.9888,-3.89139 0.4346,0.72141 0.2039,0.83446 -4.2915,2.10335 -3.2466,0.91635 -8.3815,3.11441 -11.6965,5.0068 -0.147,0.0839 -0.4143,0 -0.5939,-0.18254 z m 278.06421,-4.27715 c -2.146,-4.97721 -1.6142,-9.95178 1.4944,-13.97847 1.8416,-2.38548 2.2634,-2.17964 0.9493,0.46321 -1.56,3.13702 -2.2012,8.07601 -1.562,12.0329 0.2974,1.84151 0.4444,3.44709 0.3265,3.56797 -0.1177,0.12089 -0.6615,-0.81763 -1.2082,-2.08561 z m -6.7754,-5.10355 c -1.0831,-5.55599 0.7854,-10.82556 4.9585,-13.98422 2.2383,-1.69415 2.6571,-1.45355 0.9472,0.54427 -2.1207,2.47806 -3.6897,5.91143 -4.3492,9.51796 -0.3156,1.72563 -0.723,3.68246 -0.9055,4.3485 -0.3187,1.16318 -0.3444,1.14636 -0.651,-0.42651 z m -116.4872,-4.90531 c -3.6954,-1.56815 -5.6584,-9.68968 -3.742,-15.48159 1.0461,-3.16149 3.1252,-6.16451 6.6171,-9.55749 l 2.9208,-2.83817 -0.685,-3.01112 c -0.9885,-4.345 -0.6225,-11.5518 0.745,-14.67089 2.3045,-5.25621 6.16,-8.63754 15.9635,-14.00025 7.675,-4.19838 8.8365,-5.83515 10.7682,-15.17461 1.4042,-6.78888 2.4806,-9.55452 5.0126,-12.87959 4.1412,-5.43828 5.0505,-8.52348 3.7968,-12.88179 -0.4146,-1.44131 -1.2166,-3.3883 -1.7822,-4.32662 l -1.0282,-1.70605 -0.7925,2.96189 c -0.4359,1.62903 -1.259,3.73618 -1.8291,4.6826 -1.4484,2.4044 -5.0212,5.70871 -8.5268,7.886 -4.1028,2.54829 -5.3449,4.77804 -5.3449,9.59518 l 0,3.59258 -2.0916,-2.10589 c -2.5137,-2.53094 -4.3631,-5.88234 -5.4716,-9.91498 l -0.8201,-2.98377 -1.0478,2.22058 c -2.4023,5.09123 -2.3638,11.54347 0.1337,22.38542 l 1.1574,5.0239 -5.323,5.62491 c -5.5641,5.8799 -11.1381,12.76607 -14.5097,17.92563 -2.7711,4.24059 -7.2342,12.85795 -8.8397,17.06758 -0.7412,1.94367 -1.5151,3.53394 -1.7198,3.53394 -0.9625,0 -0.7418,-1.1874 0.996,-5.35877 4.9006,-11.76296 12.1161,-22.47223 22.7713,-33.79708 l 5.1231,-5.44494 -1.1497,-4.87441 c -1.3293,-5.63565 -1.9719,-15.96421 -1.1765,-18.90865 l 0.4993,-1.84827 -3.1742,2.8797 c -3.3178,3.00994 -11.55,9.44683 -11.78,9.21096 -0.073,-0.075 0.4764,-2.75471 1.2212,-5.95481 l 1.3541,-5.81829 -1.345,-3.47355 c -0.7397,-1.91042 -1.698,-5.20811 -2.1295,-7.32817 -1.3458,-6.61165 -0.1921,-10.80272 3.9048,-14.18487 5.7122,-4.7157 6.7472,-6.4679 5.2618,-8.90812 -0.864,-1.41928 0.046,-1.89483 1.0919,-0.57084 1.9932,2.52231 0.6679,5.55302 -4.0795,9.32922 -3.6043,2.86693 -4.8463,4.75376 -5.2361,7.95401 -0.4243,3.48369 1.2162,11.73883 2.8825,14.50467 0.1674,0.27803 0.9178,-0.825 1.6674,-2.45115 1.8256,-3.96035 5.0741,-7.15489 9.8686,-9.70499 2.1759,-1.15728 4.013,-2.02945 4.0826,-1.9382 0.07,0.0912 0.3649,3.27057 0.6561,7.06515 0.5684,7.40691 1.6061,11.52261 3.7389,14.82906 1.4809,2.2957 2.0577,2.41752 2.0577,0.43456 0,-1.72696 1.1136,-4.66588 2.275,-6.00386 0.4473,-0.51536 2.5238,-2.07479 4.6143,-3.46536 6.5644,-4.36649 8.7742,-7.81289 9.2216,-14.38193 l 0.2809,-4.1254 2.0736,3.26999 c 3.2438,5.11554 4.5124,8.76598 4.149,11.93854 -0.3579,3.1243 -1.1238,4.80265 -3.8319,8.39669 -3.317,4.40218 -3.9562,6.04734 -5.721,14.72466 -0.9427,4.63483 -3.0657,9.10202 -5.2687,11.0865 -0.9159,0.82499 -3.4181,2.39927 -5.5605,3.49845 -8.8265,4.52851 -14.1255,9.25839 -15.9368,14.22507 -1.2247,3.35812 -1.3694,9.24889 -0.3374,13.73959 l 0.672,2.92464 -3.9223,4.14324 c -6.0503,6.39113 -7.4978,10.75215 -5.7578,17.34718 0.8772,3.32434 2.3433,5.08161 4.2279,5.06762 2.6026,-0.0195 3.0535,-1.86324 1.2476,-5.10155 -0.7868,-1.41074 -1.4305,-3.27311 -1.4305,-4.13856 0,-2.28074 2.3763,-4.53582 5.881,-5.5811 4.9064,-1.46325 7.8776,-4.05901 11.1318,-9.72498 2.3366,-4.06851 4.2917,-5.40551 7.9191,-5.4157 2.1098,-0.006 3.6136,0.31801 5.3544,1.15338 l 2.4206,1.16163 2.1487,-1.80637 c 2.1398,-1.79884 6.0795,-6.22671 8.5436,-9.60233 1.237,-1.69439 1.4421,-1.78237 4.5815,-1.96433 2.6795,-0.15535 3.522,-0.41292 4.5617,-1.39453 1.6341,-1.54309 3.184,-5.10876 4.2308,-9.73423 0.4552,-2.01069 0.9728,-4.29893 1.1504,-5.08498 0.4078,-1.80522 1.467,-2.25553 1.467,-0.62373 0,1.92412 -2.1656,10.09611 -3.4789,13.12833 -1.922,4.43708 -3.8574,6.99746 -10.7879,14.27149 -7.2288,7.58701 -8.3057,9.11372 -10.4475,14.81146 -1.89,5.02809 -4.7257,9.38197 -7.6608,11.76213 -3.3159,2.68906 -9.8857,5.03228 -9.3321,3.32848 0.1005,-0.30957 1.027,-0.82182 2.0588,-1.13826 6.5656,-2.01366 10.7951,-6.71395 14.0289,-15.59016 1.7337,-4.75873 4.0575,-7.9306 10.9808,-14.98801 3.6089,-3.67881 6.562,-6.85936 6.5626,-7.06788 0,-0.20854 -1.3358,-0.30748 -2.9695,-0.21989 -2.8518,0.15291 -3.0248,0.2369 -4.3279,2.10009 -1.8905,2.7031 -6.1389,7.34749 -8.8556,9.68106 l -2.2826,1.96053 -2.3338,-1.20262 c -6.0886,-3.1374 -10.0276,-1.77535 -13.1888,4.56059 -2.0632,4.13546 -6.8196,7.97088 -11.4819,9.25884 -4.0094,1.10761 -5.3967,3.47468 -3.742,6.3845 1.9272,3.38902 2.2254,4.47032 1.6355,5.93112 -0.8826,2.18622 -2.9982,2.92259 -5.4308,1.89034 z m 7.8931,-88.89675 5.4104,-5.03927 -0.093,-4.52339 c -0.051,-2.48785 -0.2051,-4.63785 -0.3414,-4.77775 -0.5134,-0.52668 -5.4261,2.47508 -7.6022,4.64501 -2.877,2.86904 -4.8291,6.84304 -6.2618,12.74731 -0.6223,2.56496 -1.1341,4.82775 -1.1372,5.02834 -0.01,0.6872 4.6157,-3.04139 10.0256,-8.08025 z m -63.498,56.09396 c -0.1227,-0.33511 -0.4984,-1.59637 -0.8349,-2.80278 -0.5986,-2.14601 -0.6578,-2.19626 -2.7316,-2.32095 -4.4597,-0.26819 -8.5339,-1.16196 -8.5339,-1.87212 0,-0.54841 0.421,-0.61543 2.0193,-0.32151 2.5641,0.47155 9.2385,0.48184 10.849,0.0165 0.6753,-0.19502 2.041,-1.01758 3.0349,-1.82791 0.9939,-0.81032 2.2159,-1.47334 2.7156,-1.47334 2.3654,0 4.2829,-2.04797 4.7544,-5.07771 0.2229,-1.43191 1.3333,-1.54899 1.3333,-0.14057 0,2.34844 -1.3495,4.67133 -3.3099,5.69739 -1.0333,0.54077 -2.2816,0.98322 -2.7742,0.98322 -0.4925,0 -1.2717,0.42641 -1.7314,0.94764 -0.4598,0.52122 -1.745,1.33339 -2.8561,1.80479 l -2.02,0.85716 0.6387,2.46031 c 0.7715,2.97227 0.8022,3.67891 0.1599,3.67891 -0.2695,0 -0.5904,-0.27418 -0.7131,-0.6093 z m 72.4718,-0.12186 c 0,-0.13405 0.022,-0.29856 0.05,-0.36558 0.028,-0.067 -0.4955,-1.17405 -1.162,-2.46006 -1.6983,-3.27688 -2.0463,-6.19961 -1.055,-8.86241 1.3804,-3.70814 4.8121,-6.20945 13.7268,-10.00486 7.32,-3.11645 11.1277,-8.22365 13.0817,-17.54605 1.4451,-6.8945 3.4716,-12.18601 4.6669,-12.18601 0.8109,0 0.841,-0.14077 -0.7408,3.46653 -0.751,1.71268 -1.7163,4.64935 -2.145,6.526 -1.8014,7.88372 -2.3916,9.67228 -4.0712,12.33845 -2.2756,3.61192 -5.181,6.18238 -9.0477,8.00438 -1.6986,0.80038 -4.5961,2.16746 -6.4388,3.03793 -7.9302,3.74589 -10.0983,8.34508 -6.8647,14.56175 1.6097,3.09472 1.7317,3.73366 0.7127,3.73366 -0.392,0 -0.7127,-0.10969 -0.7127,-0.24373 z m 57.4901,-9.68305 c 0,-0.36602 0.4144,-1.20588 0.9208,-1.86642 1.5141,-1.97471 1.6325,-3.49602 0.5354,-6.87817 -0.8194,-2.52616 -0.9128,-3.3864 -0.492,-4.53125 0.613,-1.66763 3.232,-4.58149 4.1178,-4.58149 1.0655,0 0.6823,0.94807 -0.9932,2.45733 -2.1625,1.94796 -2.4002,3.2618 -1.1902,6.57966 1.1626,3.18796 0.9872,4.91394 -0.7776,7.64985 -1.2046,1.86748 -2.121,2.3732 -2.121,1.17049 z m -101.022,-17.97919 c 0.1598,-0.6032 0.4182,-2.5225 0.5745,-4.2651 0.2644,-2.95019 0.07,-4.3353 -1.7797,-12.67346 -0.089,-0.40214 0.1585,-0.73116 0.5505,-0.73116 0.8387,0 2.7521,7.85798 2.813,11.55273 0.056,3.42729 -0.8463,7.21373 -1.72,7.21373 -0.525,0 -0.6475,-0.30655 -0.4383,-1.09674 z m 9.1753,-1.30746 c -3.8399,-3.63119 -5.611,-10.42734 -3.3279,-12.76963 l 0.9834,-1.00885 0.7831,3.58248 c 0.4306,1.97044 1.5235,5.43107 2.4287,7.69041 0.9052,2.25928 1.5574,4.19847 1.4494,4.30926 -0.108,0.1108 -1.1505,-0.70084 -2.3167,-1.80367 z m 64.2844,-2.3908 c 0.8372,-1.06881 1.5768,-2.6877 1.7258,-3.77767 0.4068,-2.97533 0.6835,-3.55275 1.1476,-2.39474 1.011,2.52235 -0.1907,6.14312 -2.4337,7.33311 -1.989,1.05515 -2.0497,0.89469 -0.4397,-1.1607 z m -90.2686,-22.21428 c 0,-0.37811 1.3721,-1.57653 3.0492,-2.66312 4.3286,-2.80464 5.6693,-4.9987 3.4837,-5.70126 -3.1896,-1.02523 -5.161,-4.12652 -5.4781,-8.61785 -0.1988,-2.81712 -0.1206,-3.29022 0.5442,-3.29022 0.5965,0 0.7772,0.48056 0.7793,2.07162 0.01,4.853 2.0733,7.95693 5.7852,8.68682 1.7284,0.33985 2.4493,0.20731 4.5757,-0.84132 1.3883,-0.68461 2.6712,-1.09353 2.8508,-0.90878 0.534,0.54919 -2.1608,2.61794 -4.1125,3.1571 -1.2771,0.35277 -2.1503,1.03284 -2.962,2.30686 -1.1414,1.79135 -6.7805,6.38455 -7.9216,6.45235 -0.3267,0.0195 -0.5939,-0.27409 -0.5939,-0.6522 z m 7.8395,-12.57469 c -3.5611,-2.09527 -2.34,-7.69776 1.6779,-7.69776 1.8918,0 4.2612,2.30379 4.2612,4.14324 0,1.62459 -2.3742,4.14865 -3.8833,4.12843 -0.608,-0.008 -1.5331,-0.26644 -2.0558,-0.57391 z m 92.6751,-0.52113 c -0.3898,-0.61042 -1.265,-2.85766 -1.9447,-4.99387 -1.4147,-4.44628 -2.3606,-6.17412 -4.5827,-8.37126 -1.3534,-1.33822 -4.748,-3.21296 -7.6333,-4.21562 -1.0137,-0.35233 -1.1039,-1.29446 -0.1239,-1.29446 1.2141,0 5.508,1.84487 7.3622,3.16315 2.6536,1.8866 4.4991,4.87786 6.3102,10.22758 1.2191,3.6015 1.8861,4.90921 2.6518,5.19982 1.3896,0.52736 1.294,1.39452 -0.1539,1.39452 -0.7003,0 -1.4639,-0.44948 -1.8857,-1.10986 z m -96.093,-9.90025 c -0.312,-0.14521 -0.4704,-0.52401 -0.352,-0.84181 0.156,-0.41872 2.1384,-0.53706 7.1999,-0.42978 5.0723,0.10753 7.9058,-0.0623 10.3501,-0.62012 3.595,-0.82056 9.6071,-3.48116 9.0824,-4.01939 -0.1737,-0.17831 -2.0673,-0.84288 -4.2079,-1.47689 -6.2272,-1.84438 -14.6145,-6.04188 -14.6155,-7.31439 0,-0.91273 0.6731,-0.75095 3.1857,0.76484 4.8152,2.9049 12.2527,5.69194 17.9236,6.71645 l 1.8672,0.3373 -1.1368,0.94437 c -2.0673,1.7174 -5.1812,3.38708 -8.6638,4.6455 -3.0845,1.11458 -4.2877,1.25794 -11.751,1.39984 -4.5731,0.087 -8.57,0.0395 -8.8819,-0.10592 z m 54.969,0.0429 c 0,-0.15291 0.3497,-0.82557 0.7771,-1.49478 0.5828,-0.91259 0.7069,-1.85262 0.4962,-3.76051 l -0.2809,-2.54375 0.9292,1.15075 c 1.0117,1.25305 1.2115,3.49017 0.4431,4.96311 -0.4695,0.90006 -2.3647,2.25066 -2.3647,1.68518 z m -4.2762,-2.91304 c 0,-0.15929 0.3476,-0.83386 0.7725,-1.49898 0.5536,-0.86686 0.7075,-1.90078 0.5437,-3.65049 -0.2204,-2.35273 -0.1967,-2.41147 0.653,-1.62259 1.1762,1.0921 1.2076,4.61611 0.05,5.63588 -1.1146,0.982 -2.0193,1.49108 -2.0193,1.13618 z m 21.1486,-12.1477 c -0.6563,-0.6733 -1.1886,-1.61801 -1.1828,-2.09936 0.01,-0.76826 0.1109,-0.74422 0.8315,0.19649 1.0397,1.35727 3.2978,2.23745 4.7686,1.8587 0.8033,-0.20682 1.0751,-0.10806 0.9319,0.33858 -0.1112,0.34681 -1.0918,0.69787 -2.1791,0.78015 -1.5932,0.12059 -2.2085,-0.0879 -3.1701,-1.07456 z m -8.6257,-3.689831 c -1.1468,-0.488075 -2.5452,-2.324945 -2.5452,-3.343208 0,-0.414276 0.6459,-0.09135 1.6794,0.839615 1.0709,0.964646 2.19,1.512822 3.0883,1.512822 0.7749,0 1.4089,0.219348 1.4089,0.48744 0,0.268092 -0.1604,0.490414 -0.3564,0.494118 -0.196,0.0048 -0.7839,0.104698 -1.3066,0.224613 -0.5226,0.119861 -1.4084,0.02291 -1.9684,-0.2154 z m -28.6229,-5.174084 c -1.3587,-1.771944 -1.2766,-3.746126 0.2251,-5.416439 0.966,-1.074465 1.1626,-1.158646 0.917,-0.39278 -0.7164,2.234281 -0.8008,3.69519 -0.2986,5.173012 0.6939,2.042083 0.4028,2.261675 -0.8435,0.636207 z m -3.5399,-11.261241 c -0.1683,-1.06457 -0.8967,-2.428576 -1.8167,-3.402433 -1.8929,-2.003526 -0.7603,-2.284585 1.465,-0.363582 1.1664,1.006955 1.4618,1.64131 1.4618,3.139605 0,2.466693 -0.7519,2.890961 -1.1101,0.62641 z"
     id="path4754-6"
     inkscape:connector-curvature="0" />
  <path
     style="fill:none;stroke:#000000;stroke-width:1.49185407;stroke-linecap:butt;stroke-linejoin:miter;stroke-miterlimit:4;stroke-opacity:1;stroke-dasharray:none"
     d="m 535.53859,373.05008 c -2.8927,7.0557 -4.5349,13.18228 -4.5608,23.71761"
     id="path4792"
     inkscape:connector-curvature="0"
     sodipodi:nodetypes="cc" />
  <path
     style="fill:#ffffff;stroke:none"
     d="m 531.43579,396.78102 0.3392,-0.33781 -0.044,0.36302 z"
     id="path4794"
     inkscape:connector-curvature="0" />
</svg>
